HIERARCHY
ROOT Hips
{
	OFFSET 0.000000 0.000000 0.000000
	CHANNELS 6 Xposition Yposition Zposition Zrotation Yrotation Xrotation 
	JOINT LHipJoint
	{
		OFFSET 0.000000 0.000000 0.000000
		CHANNELS 3 Zrotation Yrotation Xrotation
		JOINT LeftUpLeg
		{
			OFFSET 1.363060 -1.794630 0.839290
			CHANNELS 3 Zrotation Yrotation Xrotation
			JOINT LeftLeg
			{
				OFFSET 2.448110 -6.726130 0.000000
				CHANNELS 3 Zrotation Yrotation Xrotation
				JOINT LeftFoot
				{
					OFFSET 2.562200 -7.039590 0.000000
					CHANNELS 3 Zrotation Yrotation Xrotation
					JOINT LeftToeBase
					{
						OFFSET 0.157640 -0.433110 2.322550
						CHANNELS 3 Zrotation Yrotation Xrotation
						End Site
						{
							OFFSET 0.000000 0.000000 0.000000
						}
					}
				}
			}
		}
	}
	JOINT RHipJoint
	{
		OFFSET 0.000000 0.000000 0.000000
		CHANNELS 3 Zrotation Yrotation Xrotation
		JOINT RightUpLeg
		{
			OFFSET -1.305520 -1.794630 0.839290
			CHANNELS 3 Zrotation Yrotation Xrotation
			JOINT RightLeg
			{
				OFFSET -2.542530 -6.985550 0.000000
				CHANNELS 3 Zrotation Yrotation Xrotation
				JOINT RightFoot
				{
					OFFSET -2.568260 -7.056230 0.000000
					CHANNELS 3 Zrotation Yrotation Xrotation
					JOINT RightToeBase
					{
						OFFSET -0.164730 -0.452590 2.363150
						CHANNELS 3 Zrotation Yrotation Xrotation
						End Site
						{
							OFFSET 0.000000 0.000000 0.000000
						}
					}
				}
			}
		}
	}
	JOINT LowerBack
	{
		OFFSET 0.000000 0.000000 0.000000
		CHANNELS 3 Zrotation Yrotation Xrotation
		JOINT Spine
		{
			OFFSET 0.028270 2.035590 -0.193380
			CHANNELS 3 Zrotation Yrotation Xrotation
			JOINT Spine1
			{
				OFFSET 0.056720 2.048850 -0.042750
				CHANNELS 3 Zrotation Yrotation Xrotation
				JOINT Neck
				{
					OFFSET 0.000000 0.000000 0.000000
					CHANNELS 3 Zrotation Yrotation Xrotation
					JOINT Neck1
					{
						OFFSET -0.054170 1.746240 0.172020
						CHANNELS 3 Zrotation Yrotation Xrotation
						JOINT Head
						{
							OFFSET 0.104070 1.761360 -0.123970
							CHANNELS 3 Zrotation Yrotation Xrotation
							End Site
							{
								OFFSET 0.000000 0.000000 0.000000
							}
						}
					}
				}
				JOINT LeftShoulder
				{
					OFFSET 0.000000 0.000000 0.000000
					CHANNELS 3 Zrotation Yrotation Xrotation
					JOINT LeftArm
					{
						OFFSET 3.362410 1.200890 -0.311210
						CHANNELS 3 Zrotation Yrotation Xrotation
						JOINT LeftForeArm
						{
							OFFSET 4.983000 -0.000000 -0.000000
							CHANNELS 3 Zrotation Yrotation Xrotation
							JOINT LeftHand
							{
								OFFSET 3.483560 -0.000000 -0.000000
								CHANNELS 3 Zrotation Yrotation Xrotation
								JOINT LeftFingerBase
								{
									OFFSET 0.000000 0.000000 0.000000
									CHANNELS 3 Zrotation Yrotation Xrotation
									JOINT LeftHandIndex1
									{
										OFFSET 0.715260 -0.000000 -0.000000
										CHANNELS 3 Zrotation Yrotation Xrotation
										End Site
										{
											OFFSET 0.000000 0.000000 0.000000
										}
									}
								}
								JOINT LThumb
								{
									OFFSET 0.000000 0.000000 0.000000
									CHANNELS 3 Zrotation Yrotation Xrotation
									End Site
									{
										OFFSET 0.000000 0.000000 0.000000
									}
								}
							}
						}
					}
				}
				JOINT RightShoulder
				{
					OFFSET 0.000000 0.000000 0.000000
					CHANNELS 3 Zrotation Yrotation Xrotation
					JOINT RightArm
					{
						OFFSET -3.136600 1.374050 -0.404650
						CHANNELS 3 Zrotation Yrotation Xrotation
						JOINT RightForeArm
						{
							OFFSET -5.241900 -0.000000 -0.000000
							CHANNELS 3 Zrotation Yrotation Xrotation
							JOINT RightHand
							{
								OFFSET -3.444170 -0.000000 -0.000000
								CHANNELS 3 Zrotation Yrotation Xrotation
								JOINT RightFingerBase
								{
									OFFSET 0.000000 0.000000 0.000000
									CHANNELS 3 Zrotation Yrotation Xrotation
									JOINT RightHandIndex1
									{
										OFFSET -0.622530 -0.000000 -0.000000
										CHANNELS 3 Zrotation Yrotation Xrotation
										End Site
										{
											OFFSET 0.000000 0.000000 0.000000
										}
									}
								}
								JOINT RThumb
								{
									OFFSET 0.000000 0.000000 0.000000
									CHANNELS 3 Zrotation Yrotation Xrotation
									End Site
									{
										OFFSET 0.000000 0.000000 0.000000
									}
								}
							}
						}
					}
				}
			}
		}
	}
}
MOTION
Frames: 4
Frame Time: 0.008333
-5.313605 17.673889 2.255615 178.442537 -64.314838 179.069933 -5.723397 -4.035395 -0.708140 -0.809342 3.526169 -10.353572 3.309671 14.038474 36.009211 -9.479052 22.761935 -1.009860 1.656000 -8.109300 -23.046700 5.708121 3.493721 -0.188288 1.161019 1.673831 -6.803978 -1.442520 -12.354829 31.470717 7.369019 -20.244072 -10.748253 -0.223000 -3.039900 8.389700 2.228501 1.646297 -5.108318 -0.043208 1.983395 -1.030529 -2.720535 1.016103 6.728486 1.006380 6.671411 -2.309084 1.348771 8.647361 1.941453 -1.067500 4.308500 -1.285400 -7.457785 -7.355322 1.604923 -71.842023 5.771426 30.311867 48.675211 -49.648582 -29.243679 0.532152 0.665191 13.797015 38.957587 -21.686428 -17.184600 -7.125000 0.000000 0.000000 5.838000 1.850300 -5.676300 9.997796 7.237323 1.388423 70.159330 -3.302770 34.634946 -53.306938 51.731077 -31.451529 1.925024 1.325890 11.894800 -13.023387 -40.111688 9.803400 7.125000 0.000000 0.000000 32.578800 -69.949100 -20.148500 
-5.307585 17.671213 2.255838 178.561806 -64.396148 178.937560 -5.712885 -4.030431 -0.713286 -0.738489 3.589372 -10.388300 3.323774 14.034252 36.010006 -9.496786 22.804684 -0.932155 1.885000 -8.622300 -24.620900 5.725980 3.497218 -0.168365 1.230640 2.025462 -6.616649 -1.399187 -12.353935 31.502440 6.905172 -19.228881 -11.028154 -0.475400 -4.421700 12.266200 2.191670 1.575120 -5.028848 -0.003400 1.889729 -1.037737 -2.629518 0.963332 6.656689 1.214196 6.611604 -2.193017 1.025189 8.592556 1.805820 -1.251400 4.274200 -1.332400 -7.438887 -7.351816 1.603328 -71.886677 5.739736 30.201405 48.669155 -49.640426 -29.244519 0.537024 0.663841 13.694039 38.782417 -21.819989 -17.168000 -7.125000 0.000000 0.000000 5.702500 1.751000 -5.553400 10.019860 7.251783 1.398255 70.073893 -3.183915 34.788129 -53.228361 51.646841 -31.243273 1.934200 1.124514 12.007483 -15.347156 -37.257179 10.756900 7.125000 0.000000 0.000000 25.044000 -68.140600 -14.259800 
-5.307808 17.672774 2.256507 178.591143 -64.404986 178.889270 -5.721608 -4.024391 -0.701617 -0.723784 3.554020 -10.338902 3.309260 14.015140 35.942115 -9.510808 22.834557 -0.895217 1.900000 -8.654500 -24.720500 5.718151 3.501242 -0.189337 1.258231 1.939576 -6.693023 -1.439718 -12.402396 31.615962 7.221950 -19.941846 -11.049494 -0.299400 -3.518300 9.725200 2.133987 1.509565 -5.026317 0.026844 1.804514 -1.029850 -2.540931 0.914684 6.672201 1.305258 6.638337 -2.159942 0.837479 8.641630 1.750907 -1.354200 4.295700 -1.342300 -7.430121 -7.348956 1.603215 -71.937199 5.663338 30.024284 48.599952 -49.604287 -29.197964 0.535952 0.666158 13.607663 38.715052 -21.869824 -17.163000 -7.125000 0.000000 0.000000 5.652200 1.712200 -5.507900 10.039856 7.256469 1.405630 69.926071 -3.205617 35.020321 -53.386179 51.648238 -31.231192 1.909295 0.918824 12.111458 -17.341205 -34.263412 11.243000 7.125000 0.000000 0.000000 18.828500 -65.847100 -9.626800 
-5.306136 17.656497 2.256953 178.354075 -64.411022 179.077456 -5.719773 -4.026848 -0.689332 -0.851026 3.789540 -10.293264 3.289064 14.005377 35.886135 -9.447269 22.729964 -0.819225 2.192100 -9.255300 -26.597200 5.688962 3.505734 -0.223657 1.159521 1.924838 -6.693227 -1.476153 -12.446144 31.775951 7.129738 -19.745854 -11.102072 -0.311100 -3.585800 9.914100 2.185464 1.535707 -5.326740 -0.061256 1.841623 -0.919519 -2.814877 0.941537 7.101139 1.504735 6.628512 -2.121279 0.816376 8.640895 1.603945 -1.396600 4.284600 -1.421300 -7.480687 -7.328142 1.631084 -71.586475 5.384128 30.079199 48.459364 -49.532427 -29.102282 0.532316 0.661109 13.564956 38.733645 -21.805418 -17.126300 -7.125000 0.000000 0.000000 5.679200 1.791000 -5.526400 10.032539 7.235209 1.417698 70.158980 -2.944546 34.978323 -53.438511 51.616128 -31.121247 1.858196 0.674216 12.289155 -19.244169 -30.922765 11.344800 7.125000 0.000000 0.000000 13.415400 -62.946300 -5.901000 
